<svg xmlns="http://www.w3.org/2000/svg" viewBox="0 0 32 40" x="0px" y="0px"><title>Artboard 8</title><g data-name="Layer 8"><path d="M25.1,7.11c-.42-1.93-.36-4.72-2.66-5a80.05,80.05,0,0,0-8.2-.09c-1.48,0-3.79-.38-5.21.19S7.44,5.46,7.29,6.94c-1.39.3-2.16,1.17-1.15,2.91l0,0,.07.09.06,0,.1,0,.08,0h.65c.8,5.34,1.44,10.7,2.21,16.05.2,1.34,0,3.07,1.53,3.62a9.2,9.2,0,0,0,2.92.16c1.44,0,2.89,0,4.33,0,1.1,0,3.09.32,3.95-.62s.91-3.68,1.14-5a.59.59,0,0,1,0-.13s0,0,0-.08c.79-4.62,1.37-9.27,2.11-13.9h.21a.43.43,0,0,0,.36-.19A.42.42,0,0,0,26,9.88C26.64,8.25,26.25,7.42,25.1,7.11Zm-16-3.45c.36-.55.15-.4,1-.54A27.16,27.16,0,0,1,14.56,3c1.79,0,3.59,0,5.38,0,1.12,0,2-.17,2.83.6A5.72,5.72,0,0,1,24.07,7c-2.21-.12-4.43-.15-6.64-.15-3,0-6.12-.11-9.15,0A8.19,8.19,0,0,1,9.08,3.66ZM9.6,7.79l3.93,0c1.53,0,3,0,4.57,0,1.37,0,2.74,0,4.1.09.65,0,1.31,0,2,0,1.06.06,1.33.39,1.05,1.34C19.09,9.46,13,9.05,6.86,9.11,6.21,7.55,9,7.79,9.6,7.79ZM22.35,23.64a34.76,34.76,0,0,1-6.29.11c-2-.05-4,0-6.08-.15l-.12-.82c-.39-2.84-.76-5.68-1.15-8.53,5-.22,10.07.33,15.06,0-.32,2.23-.64,4.47-1,6.7C22.64,21.85,22.5,22.75,22.35,23.64Zm-.48,2.67a6.62,6.62,0,0,1-.38,1.94c-.64,1-1.84.71-2.93.72-1.85,0-4.24.33-6.06,0-2.38-.5-2-1.61-2.27-3.48l-.12-.84a54.64,54.64,0,0,0,12.06,0C22.07,25.2,22,25.76,21.87,26.31Zm2.05-13c-5.09.36-10.24-.23-15.35,0-.15-1.06-.29-2.13-.45-3.2,5.42,0,10.84.31,16.26.19C24.22,11.27,24.07,12.27,23.92,13.27Z"/><path d="M19.24,15.75a3.21,3.21,0,0,0-2.86-.43c-1.86.75-4,2.71-4.08,4.83s2.08,3.31,4,3c2.32-.36,3.73-2.77,3.78-4.95A2.88,2.88,0,0,0,19.24,15.75ZM13.65,19a6.31,6.31,0,0,1,3-2.76,1.88,1.88,0,0,1,.59-.12c-.1,1.5-1.15,2.24-2,3.34a4.41,4.41,0,0,0-1,2.36A2,2,0,0,1,13.65,19Zm5.26.42a3.58,3.58,0,0,1-3.12,2.78,3.7,3.7,0,0,1-.59,0,.24.24,0,0,0,0-.08c0-1.55,1.2-2.35,2.07-3.47a4.26,4.26,0,0,0,.89-2.29,1.48,1.48,0,0,1,.83.78A4.11,4.11,0,0,1,18.91,19.44Z"/></g><text x="0" y="47" fill="#000000" font-size="5px" font-weight="bold" font-family="'Helvetica Neue', Helvetica, Arial-Unicode, Arial, Sans-serif">Created by SalahCoret Studio</text><text x="0" y="52" fill="#000000" font-size="5px" font-weight="bold" font-family="'Helvetica Neue', Helvetica, Arial-Unicode, Arial, Sans-serif">from the Noun Project</text></svg>